<?xml version="1.0" encoding="UTF-8"?>
<svg id="Calque_2" data-name="Calque 2" xmlns="http://www.w3.org/2000/svg" viewBox="0 0 495.39 264.27">
  <defs>
    <style>
      .cls-1 {
        fill: #06f;
        stroke-width: 0px;
      }
    </style>
  </defs>
  <g id="Calque_1-2" data-name="Calque 1">
    <path class="cls-1" d="m492.71,85.01c-3.46-3.29-8.94-3.14-12.22.33-11.66,12.25-23.97,24.19-37.35,34.32-11.18,8.26-33.23,23.47-46.26,14.38-7.86-6.09-11.17-17.18-14.02-26.77-3.41-12.14-5.37-25.51-8.93-38.3-1.79-5.86-3.19-10.65-7.26-16.41-7.38-10.47-21.07-12.67-31.52-5.18-9.79,7.28-14.61,17.2-19.78,27.18-9.74,20.11-17.27,41.77-25.26,61.71-.41,1.02-.81,2.03-1.22,3.04-.1-1.58-.19-3.15-.3-4.71-2.42-34.36-2.29-84.02-23.11-113.56C255.92,7.44,240.09-.83,223.26.07c-27.79,1.55-51.87,21.1-71.5,38.08C95.49,90.06,50.54,152.34,5.93,213.82c-10.64,14.82-6.55,35.8,8.9,45.5,14.89,9.43,34.61,5,44.03-9.89,18.45-29.15,37.34-57.96,57.08-85.89,21.91-30.7,44.7-61.25,71.01-87.88,10.1-9.81,21.41-20.41,33.65-26.1,2.8-1.24,4.4-1.6,5.94-1.91l.02-.07s-.04,0-.05-.03c-.01-.09-.05-.08-.05-.16,0-.04.16-.03.51.17.35.29.88.69,1.48,1.41,1.21,1.39,2.65,3.72,3.98,6.46,4.59,9.93,6.95,20.71,9.11,32.14,3,16.52,4.72,33.52,6.65,50.51,1,8.77,2,17.64,3.58,27.09,1.63,8.72,3.19,18.05,8.43,26.71,5.71,9.55,16.86,14.8,27.75,11.6,7.84-2.15,14.09-8.72,18.07-15.3,7.79-13.04,11.97-26.48,16.67-39.96,5.53-16.48,10.53-33.1,16.41-49.19,2.53-6.69,5.11-13.66,8.44-19.95,3.94,11.62,6.21,23.73,10.47,35.89,5.12,14.78,11.78,30.04,25.86,39.06,32.82,19.64,70.04-15.29,91.57-37.27,6.22-6.46,12.13-13.12,17.87-19.87,2.93-3.46,2.7-8.68-.63-11.85Zm-218.91,84.53c.13-.13.28-.26.42-.38-.04.04-.07.09-.1.13-.25.26-.47.45-.32.25Zm69.82-99.55c.06.05.18.19.32.39-.13-.13-.25-.27-.32-.39Z"/>
  </g>
</svg>